<svg width="1400" height="900" viewBox="0 0 1400 900" fill="none" xmlns="http://www.w3.org/2000/svg">
  <defs>
    <linearGradient id="bg" x1="0" y1="0" x2="1" y2="1">
      <stop offset="0%" stop-color="#f5f9fc"/>
      <stop offset="100%" stop-color="#edf4fa"/>
    </linearGradient>
  </defs>
  <rect width="1400" height="900" fill="url(#bg)"/>

  <rect x="40" y="28" width="1320" height="70" rx="18" fill="#ffffff" stroke="#dbe6ee"/>
  <text x="74" y="72" font-family="Arial, sans-serif" font-size="30" fill="#1f2d3d">Investing</text>
  <rect x="1180" y="40" width="160" height="46" rx="14" fill="#5f8fa8"/>
  <text x="1220" y="70" font-family="Arial, sans-serif" font-size="22" fill="#ffffff">Refresh</text>

  <rect x="40" y="118" width="425" height="155" rx="20" fill="#ffffff" stroke="#dbe6ee"/>
  <text x="68" y="162" font-family="Arial, sans-serif" font-size="22" fill="#2a3d52">Market Summary</text>
  <text x="68" y="212" font-family="Arial, sans-serif" font-size="34" fill="#1f2d3d">U: 7  F: 4  O: 12</text>

  <rect x="488" y="118" width="425" height="155" rx="20" fill="#ffffff" stroke="#dbe6ee"/>
  <text x="516" y="162" font-family="Arial, sans-serif" font-size="22" fill="#2a3d52">Top Opportunity</text>
  <text x="516" y="212" font-family="Arial, sans-serif" font-size="34" fill="#1f2d3d">Microsoft</text>

  <rect x="936" y="118" width="424" height="155" rx="20" fill="#ffffff" stroke="#dbe6ee"/>
  <text x="964" y="162" font-family="Arial, sans-serif" font-size="22" fill="#2a3d52">Next Earnings</text>
  <text x="964" y="212" font-family="Arial, sans-serif" font-size="30" fill="#1f2d3d">2026-02-19 - Walmart</text>

  <text x="44" y="312" font-family="Arial, sans-serif" font-size="24" fill="#2a3d52">Earnings Calendar (Next 5)</text>
  <rect x="40" y="326" width="1320" height="170" rx="20" fill="#ffffff" stroke="#dbe6ee"/>
  <rect x="62" y="350" width="248" height="54" rx="14" fill="#f4f8fc" stroke="#dbe6ee"/>
  <rect x="326" y="350" width="248" height="54" rx="14" fill="#f4f8fc" stroke="#dbe6ee"/>
  <rect x="590" y="350" width="248" height="54" rx="14" fill="#f4f8fc" stroke="#dbe6ee"/>
  <rect x="854" y="350" width="248" height="54" rx="14" fill="#f4f8fc" stroke="#dbe6ee"/>
  <rect x="1118" y="350" width="220" height="54" rx="14" fill="#f4f8fc" stroke="#dbe6ee"/>
  <text x="74" y="384" font-family="Arial, sans-serif" font-size="16" fill="#1f2d3d">2026-02-19 - Walmart</text>
  <text x="338" y="384" font-family="Arial, sans-serif" font-size="16" fill="#1f2d3d">2026-02-25 - Nvidia</text>
  <text x="602" y="384" font-family="Arial, sans-serif" font-size="16" fill="#1f2d3d">2026-02-28 - Berkshire</text>
  <text x="866" y="384" font-family="Arial, sans-serif" font-size="16" fill="#1f2d3d">2026-03-04 - Broadcom</text>
  <text x="1128" y="384" font-family="Arial, sans-serif" font-size="16" fill="#1f2d3d">2026-03-06 - Apple</text>
  <text x="64" y="446" font-family="Arial, sans-serif" font-size="17" fill="#5b6f82">Click any event box to open popup details</text>

  <text x="44" y="538" font-family="Arial, sans-serif" font-size="24" fill="#2a3d52">Top Opportunities (Click For Details)</text>
  <rect x="40" y="552" width="920" height="308" rx="20" fill="#ffffff" stroke="#dbe6ee"/>
  <rect x="64" y="576" width="270" height="62" rx="14" fill="#f4f8fc" stroke="#dbe6ee"/>
  <rect x="348" y="576" width="270" height="62" rx="14" fill="#f4f8fc" stroke="#dbe6ee"/>
  <rect x="632" y="576" width="304" height="62" rx="14" fill="#f4f8fc" stroke="#dbe6ee"/>
  <text x="80" y="614" font-family="Arial, sans-serif" font-size="18" fill="#1f2d3d">1. Microsoft (Undervalued)</text>
  <text x="364" y="614" font-family="Arial, sans-serif" font-size="18" fill="#1f2d3d">2. J&amp;J (Undervalued)</text>
  <text x="648" y="614" font-family="Arial, sans-serif" font-size="18" fill="#1f2d3d">3. Alphabet (Undervalued)</text>

  <rect x="984" y="552" width="376" height="308" rx="20" fill="#ffffff" stroke="#dbe6ee"/>
  <text x="1012" y="596" font-family="Arial, sans-serif" font-size="24" fill="#2a3d52">Benchmarks</text>
  <text x="1012" y="648" font-family="Arial, sans-serif" font-size="19" fill="#1f2d3d">ACWI • Overvalued • 1.18</text>
  <text x="1012" y="690" font-family="Arial, sans-serif" font-size="19" fill="#1f2d3d">S&amp;P 500 • Overvalued • 1.31</text>
  <text x="1012" y="732" font-family="Arial, sans-serif" font-size="19" fill="#1f2d3d">OMXC25 • Fair • 0.90</text>
</svg>
